<?xml version="1.0" standalone="no"?>
<!DOCTYPE svg PUBLIC "-//W3C//DTD SVG 1.1//EN" "http://www.w3.org/Graphics/SVG/1.1/DTD/svg11.dtd" >
<svg>
<metadata>
Created by FontForge 20120731 at Sat Apr 16 20:25:29 2016
 By www
Copyright (c) 2014 Monotype Imaging Inc. All rights reserved.
</metadata>
<defs>
<font id="HelveticaInseratLTW01-Rg" horiz-adv-x="500" >
  <font-face 
    font-family="HelveticaInseratLTW01-Rg"
    font-weight="800"
    font-stretch="normal"
    units-per-em="1000"
    panose-1="2 11 8 6 3 7 2 5 2 4"
    ascent="800"
    descent="-200"
    x-height="639"
    cap-height="799"
    bbox="-176 -250 1000 990"
    underline-thickness="50"
    underline-position="-125"
    unicode-range="U+000D-E308"
  />
<missing-glyph horiz-adv-x="512" 
d="M0 0v718h512v-718h-512zM50 667v-617h412v617h-412zM320 359l-28 -28q-11 -12 -15.5 -26t-4.5 -40v-32h-49v39q0 37 15.5 62.5t45.5 56.5q25 26 36.5 43t11.5 40q0 36 -22.5 60.5t-53.5 24.5q-33 0 -54.5 -23t-27.5 -72l-50 8q6 69 42.5 103t92.5 34q55 0 89.5 -36
t34.5 -95q0 -40 -15.5 -64.5t-47.5 -54.5zM278 117h-61v67h61v-67z" />
    <glyph glyph-name=".notdef" horiz-adv-x="512" 
d="M0 0v718h512v-718h-512zM50 667v-617h412v617h-412zM320 359l-28 -28q-11 -12 -15.5 -26t-4.5 -40v-32h-49v39q0 37 15.5 62.5t45.5 56.5q25 26 36.5 43t11.5 40q0 36 -22.5 60.5t-53.5 24.5q-33 0 -54.5 -23t-27.5 -72l-50 8q6 69 42.5 103t92.5 34q55 0 89.5 -36
t34.5 -95q0 -40 -15.5 -64.5t-47.5 -54.5zM278 117h-61v67h61v-67z" />
    <glyph glyph-name="glyph1" horiz-adv-x="0" 
 />
    <glyph glyph-name="glyph1" horiz-adv-x="0" 
 />
    <glyph glyph-name="uni000D" unicode="&#xd;" horiz-adv-x="250" 
 />
    <glyph glyph-name="space" unicode=" " horiz-adv-x="250" 
 />
    <glyph glyph-name="exclam" unicode="!" horiz-adv-x="334" 
d="M212 231h-90l-38 256v312h166v-312zM84 0v184h166v-184h-166z" />
    <glyph glyph-name="quotedbl" unicode="&#x22;" 
d="M76 517v282h142v-282h-142zM282 517v282h142v-282h-142z" />
    <glyph glyph-name="numbersign" unicode="#" 
d="M314 585l24 201h114l-25 -201h74v-118h-89l-15 -131h74v-118h-89l-25 -218h-113l26 218h-82l-26 -218h-115l26 218h-74v118h89l15 131h-74v118h89l24 201h115l-24 -201h81zM300 467h-81l-17 -131h82z" />
    <glyph glyph-name="dollar" unicode="$" 
d="M462 592v-49h-166v54q0 66 -51 66q-19 0 -32 -17t-13 -41q0 -30 23 -56t67 -63q69 -57 96 -86q45 -49 65.5 -97t20.5 -104q0 -182 -182 -212v-72h-82v72q-85 1 -132 52t-47 132v94h166v-75q0 -38 12 -52.5t40 -14.5q47 0 47 75q0 33 -22 63.5t-71 70.5q-67 54 -94 82
q-79 82 -79 182q0 89 49 142.5t131 60.5v72h82v-72q87 -8 129.5 -55.5t42.5 -151.5z" />
    <glyph glyph-name="percent" unicode="%" horiz-adv-x="889" 
d="M292 -26l212 838h93l-209 -838h-96zM234 378q-141 0 -141 120v181q0 120 141 120q139 0 139 -120v-180q0 -121 -139 -121zM234 466q16 0 21.5 8t5.5 24v181q0 16 -5.5 24t-22.5 8q-16 0 -22 -8.5t-6 -23.5v-181q0 -16 6 -24t23 -8zM657 -13q-141 0 -141 121v179
q0 121 141 121q139 0 139 -120v-180q0 -121 -139 -121zM657 75q17 0 22 9t5 24v180q0 16 -6 24t-22 8t-22 -8.5t-6 -23.5v-181q0 -16 6 -24t23 -8z" />
    <glyph glyph-name="ampersand" unicode="&#x26;" horiz-adv-x="667" 
d="M376 440l70 -126q6 6 20 56.5t14 73.5h141q-8 -85 -32.5 -156t-64.5 -118l94 -170h-177l-25 49q-32 -30 -75 -46t-89 -16q-101 0 -153.5 61.5t-52.5 176.5q0 40 18.5 86t52 85.5t76.5 61.5q-37 61 -52 100t-15 74q0 76 50.5 121.5t132.5 45.5q86 0 134.5 -40t48.5 -114
q0 -56 -30.5 -109.5t-85.5 -95.5zM356 636q0 45 -41 45q-19 0 -30 -10.5t-11 -30.5q0 -25 36 -83q21 20 33.5 38t12.5 41zM206 218q0 -37 21.5 -63t53.5 -26q37 0 73 31l-94 176q-32 -35 -43 -60.5t-11 -57.5z" />
    <glyph glyph-name="quotesingle" unicode="'" horiz-adv-x="278" 
d="M68 517v282h142v-282h-142z" />
    <glyph glyph-name="parenleft" unicode="(" horiz-adv-x="333" 
d="M225 609v-535q0 -52 16.5 -74t52.5 -22v-88q-109 18 -166 81t-57 154v423q0 66 25 121.5t75.5 90.5t122.5 39v-88q-35 -1 -52 -21.5t-17 -80.5z" />
    <glyph glyph-name="parenright" unicode=")" horiz-adv-x="333" 
d="M203 723q29 -34 44 -79.5t15 -95.5v-423q0 -87 -52 -149q-57 -67 -171 -86v88q36 1 52.5 22t16.5 76v533q0 60 -17 80.5t-52 21.5v88q106 -8 164 -76z" />
    <glyph glyph-name="asterisk" unicode="*" horiz-adv-x="389" 
d="M315 757l35 -67l-93 -55l93 -55l-40 -63l-79 56l8 -104h-82l3 104l-79 -58l-42 64l91 55l-89 56l37 68l82 -60l-6 101h84l-7 -100z" />
    <glyph glyph-name="plus" unicode="+" horiz-adv-x="600" 
d="M553 396v-142h-182v-182h-142v182h-182v142h182v182h142v-182h182z" />
    <glyph glyph-name="comma" unicode="," horiz-adv-x="250" 
d="M134 -114h-92q63 54 82 114h-82v184h166v-174q0 -23 -14.5 -53.5t-32 -50.5t-27.5 -20z" />
    <glyph glyph-name="hyphen" unicode="-" horiz-adv-x="333" 
d="M35 264v148h263v-148h-263z" />
    <glyph glyph-name="period" unicode="." horiz-adv-x="250" 
d="M42 0v184h166v-184h-166z" />
    <glyph glyph-name="slash" unicode="/" horiz-adv-x="278" 
d="M-41 -13l218 825h142l-218 -825h-142z" />
    <glyph glyph-name="zero" unicode="0" 
d="M250 -13q-106 0 -163 54t-57 143v418q0 88 56.5 142.5t163.5 54.5t163.5 -54.5t56.5 -142.5v-418q0 -88 -56.5 -142.5t-163.5 -54.5zM250 123q42 0 42 49v440q0 27 -10.5 39t-32.5 12q-41 0 -41 -49v-443q0 -48 42 -48z" />
    <glyph glyph-name="one" unicode="1" 
d="M177 0v590h-126v112q58 4 97 26t51 58h150v-786h-172z" />
    <glyph glyph-name="two" unicode="2" 
d="M356 343q-67 -61 -102.5 -105.5t-49.5 -89.5h269v-148h-452v32q0 148 73 256q19 28 42 52t67 67q55 52 76.5 91.5t21.5 91.5q0 40 -12 56.5t-37 16.5q-26 0 -37.5 -17t-11.5 -53v-83h-166v39q0 129 52.5 189.5t173.5 60.5q104 0 160 -53t56 -156q0 -75 -29.5 -132
t-93.5 -115z" />
    <glyph glyph-name="three" unicode="3" 
d="M376 426q47 -16 70.5 -57.5t23.5 -123.5q0 -64 -9 -108.5t-30 -74.5q-26 -39 -71.5 -57t-112.5 -18q-109 0 -166 51.5t-57 148.5v78h172v-84q0 -24 11 -41t37 -17t37 15.5t11 42.5v66q0 45 -10.5 67t-34 30t-68.5 9v130h28q38 0 58.5 18t20.5 44v67q0 51 -42 51
q-45 0 -45 -56v-52h-171l-1 29q0 112 54 163.5t166 51.5q111 0 164 -49.5t53 -149.5q0 -77 -20.5 -114t-67.5 -60z" />
    <glyph glyph-name="four" unicode="4" 
d="M120 291h129v108q39 56 66 116.5t39 112.5h67v-337h60v-142h-60v-149h-172v149h-230v165q42 88 75 219.5t40 252.5h185q-9 -107 -61 -238.5t-138 -256.5z" />
    <glyph glyph-name="five" unicode="5" 
d="M190 638v-118h2q21 16 47.5 23.5t47.5 7.5q90 0 136.5 -49t46.5 -141v-119q0 -131 -53.5 -193t-169.5 -62q-109 0 -166 52t-57 149v71h172v-78q0 -23 11 -40.5t37 -17.5t37 16t11 42v176q0 24 -11 41t-37 17q-48 0 -48 -60h-154v431h403v-148h-255z" />
    <glyph glyph-name="six" unicode="6" 
d="M250 663q-48 0 -48 -63v-92l2 -2q19 27 41 36t59 9q87 0 126.5 -53t39.5 -165v-148q0 -88 -55.5 -143t-164.5 -55q-107 0 -163.5 54.5t-56.5 142.5v418q0 88 56.5 142.5t163.5 54.5q101 0 154.5 -48t53.5 -154h-160q0 33 -11 49.5t-37 16.5zM250 123q42 0 42 49v193
q0 50 -42 50t-42 -48v-196q0 -48 42 -48z" />
    <glyph glyph-name="seven" unicode="7" 
d="M291 0h-190q8 167 57 314.5t140 323.5h-286v148h458v-133q-80 -129 -126 -295t-53 -358z" />
    <glyph glyph-name="eight" unicode="8" 
d="M377 422q31 -12 50.5 -27t31 -44.5t11.5 -79.5v-86q0 -90 -56.5 -144t-163.5 -54q-106 0 -163 54t-57 144q0 55 0.5 84.5t2.5 43.5q6 44 30.5 71t56.5 38q-43 19 -62 51q-13 23 -17.5 42t-4.5 47v26q0 33 1.5 52t7.5 40q35 119 205 119q112 0 163 -50t51 -137v-66
q0 -39 -23.5 -74t-63.5 -50zM249 663q-41 0 -41 -49v-77q0 -49 42 -49t42 49v76q0 26 -10.5 38t-32.5 12zM250 352q-42 0 -42 -49v-131q0 -25 10 -37t32 -12q42 0 42 49v131q0 49 -42 49z" />
    <glyph glyph-name="nine" unicode="9" 
d="M250 -13q-105 0 -156.5 50t-51.5 152h160q0 -33 11 -49.5t37 -16.5q48 0 48 63v92l-2 2q-21 -26 -40.5 -35.5t-59.5 -9.5q-91 0 -130 58q-36 53 -36 157v152q0 87 57 142t163 55q107 0 163.5 -54.5t56.5 -142.5v-418q0 -88 -56.5 -142.5t-163.5 -54.5zM250 371
q42 0 42 49v194q0 26 -11 37.5t-32 11.5q-17 0 -29 -10.5t-12 -37.5v-196q0 -48 42 -48z" />
    <glyph glyph-name="colon" unicode=":" horiz-adv-x="250" 
d="M42 397v184h166v-184h-166zM42 0v184h166v-184h-166zM4 639z" />
    <glyph glyph-name="semicolon" unicode=";" horiz-adv-x="250" 
d="M42 397v184h166v-184h-166zM133 -114h-91q63 54 82 114h-82v184h166v-174q0 -22 -13.5 -51.5t-32 -51t-29.5 -21.5zM4 639z" />
    <glyph glyph-name="less" unicode="&#x3c;" horiz-adv-x="600" 
d="M247 324l306 -106v-154l-506 190v142l506 190v-154l-306 -106v-2z" />
    <glyph glyph-name="equal" unicode="=" horiz-adv-x="600" 
d="M47 378v142h506v-142h-506zM47 130v142h506v-142h-506z" />
    <glyph glyph-name="greater" unicode="&#x3e;" horiz-adv-x="600" 
d="M47 64v154l306 106v2l-306 106v154l506 -190v-142z" />
    <glyph glyph-name="question" unicode="?" 
d="M372 424q-57 -57 -78.5 -99.5t-22.5 -93.5h-130v37q0 61 21 105.5t80 110.5q32 36 47 66t15 62q0 44 -14 63t-42 19q-56 0 -56 -98v-50h-154v70q0 56 26 100.5t75 70t116 25.5q104 0 162.5 -48t58.5 -145q0 -56 -24.5 -98t-79.5 -97zM122 0v184h166v-184h-166z" />
    <glyph glyph-name="at" unicode="@" horiz-adv-x="880" 
d="M755 241q-38 -39 -91 -62t-93 -23q-32 0 -50 14.5t-19 40.5h-3q-41 -55 -106 -55q-47 0 -89.5 27t-68 73t-25.5 100q0 67 28.5 125.5t79.5 93.5t115 35q88 0 136 -65l10 53h104l-47 -257q-1 -4 -4.5 -19t-3.5 -25t6.5 -16.5t20.5 -6.5q41 0 65.5 44t24.5 124
q0 83 -35 144t-100 93.5t-154 32.5t-158 -39.5t-107 -111t-38 -163.5q0 -95 40.5 -165.5t113.5 -108t167 -37.5q119 0 209 67h109q-61 -82 -143.5 -124.5t-183.5 -42.5q-117 0 -215.5 53t-156.5 147t-58 211q0 118 57.5 212.5t154.5 148t212 53.5q101 0 190 -42.5
t142.5 -119t53.5 -173.5q0 -144 -90 -236zM540 399q0 41 -25.5 67t-66.5 26q-28 0 -53 -16.5t-40 -43.5t-15 -58q0 -40 22 -67t62 -27q50 0 83 35t33 84z" />
    <glyph glyph-name="A" unicode="A" horiz-adv-x="556" 
d="M356 0l-17 142h-129l-19 -142h-184l148 799h244l150 -799h-193zM321 284l-43 391h-2l-47 -391h92z" />
    <glyph glyph-name="B" unicode="B" horiz-adv-x="556" 
d="M495 611q0 -86 -23.5 -127t-77.5 -61v-2q65 -11 93 -57.5t28 -126.5q0 -121 -54 -179t-155 -58h-265v799h259q98 0 146.5 -43.5t48.5 -144.5zM323 576q0 52 -15 69.5t-47 17.5h-36v-180h30q37 0 52.5 19t15.5 74zM330 210q1 9 1 35q0 59 -15 83.5t-51 24.5h-40v-217h28
q29 0 44 5t23 20.5t10 48.5z" />
    <glyph glyph-name="C" unicode="C" horiz-adv-x="556" 
d="M331 602q0 35 -12.5 51.5t-40.5 16.5t-40.5 -16.5t-12.5 -51.5v-402q0 -71 53 -71t53 71v119h184v-104q0 -66 -28 -118t-81.5 -81t-127.5 -29t-127.5 29t-81.5 80.5t-28 117.5v371q0 103 62 165t175 62q112 0 174.5 -61.5t62.5 -165.5v-78h-184v95z" />
    <glyph glyph-name="D" unicode="D" horiz-adv-x="556" 
d="M515 590v-389q0 -61 -26.5 -106.5t-71.5 -70t-100 -24.5h-276v799h277q197 0 197 -209zM331 206v391q0 33 -20 49.5t-57 16.5h-29v-527h25q44 0 62.5 17.5t18.5 52.5z" />
    <glyph glyph-name="E" unicode="E" 
d="M225 645v-159h197v-154h-197v-178h234v-154h-418v799h409v-154h-225z" />
    <glyph glyph-name="F" unicode="F" horiz-adv-x="444" 
d="M225 645v-159h179v-154h-179v-332h-184v799h384v-154h-200z" />
    <glyph glyph-name="G" unicode="G" horiz-adv-x="556" 
d="M340 610q0 28 -14 44t-44 16q-27 0 -42 -19.5t-15 -51.5v-399q0 -71 53 -71q59 0 59 58v105h-65v148h243v-440h-161v65h-2q-25 -41 -59 -59.5t-83 -18.5q-84 0 -126.5 59t-42.5 167v372q0 104 62.5 165.5t174.5 61.5q117 0 177 -50.5t60 -142.5v-92h-175v83z" />
    <glyph glyph-name="H" unicode="H" horiz-adv-x="556" 
d="M331 500v299h184v-799h-184v340h-106v-340h-184v799h184v-299h106z" />
    <glyph glyph-name="I" unicode="I" horiz-adv-x="278" 
d="M47 0v799h184v-799h-184z" />
    <glyph glyph-name="J" unicode="J" 
d="M237 -13q-107 0 -160 54t-53 153v122h178v-139q0 -26 8.5 -37t26.5 -11q16 0 27 12t11 37v621h184v-604q0 -208 -222 -208z" />
    <glyph glyph-name="K" unicode="K" horiz-adv-x="556" 
d="M222 472l122 327h195l-153 -331l154 -468h-196l-82 286l-43 -66v-220h-178v799h178v-327h3z" />
    <glyph glyph-name="L" unicode="L" horiz-adv-x="444" 
d="M425 154v-154h-384v799h184v-645h200z" />
    <glyph glyph-name="M" unicode="M" horiz-adv-x="778" 
d="M390 403l52 396h290v-799h-178v621h-2l-103 -621h-120l-103 621h-2v-621h-178v799h290l52 -396h2z" />
    <glyph glyph-name="N" unicode="N" horiz-adv-x="611" 
d="M392 328v471h178v-799h-200l-149 494h-2v-494h-178v799h201l148 -471h2z" />
    <glyph glyph-name="O" unicode="O" horiz-adv-x="556" 
d="M278 -13q-74 0 -127.5 29t-81.5 80.5t-28 117.5v371q0 104 63.5 165.5t173.5 61.5q112 0 174.5 -62.5t62.5 -164.5v-371q0 -66 -28.5 -117.5t-82 -80.5t-126.5 -29zM278 129q53 0 53 71v400q0 37 -12.5 53.5t-41.5 16.5q-26 0 -39 -15t-13 -53v-402q0 -71 53 -71z" />
    <glyph glyph-name="P" unicode="P" horiz-adv-x="556" 
d="M523 560q0 -243 -190 -243h-108v-317h-184v799h215q105 0 162 -21.5t81 -72.5t24 -145zM339 560q0 55 -14.5 76t-58.5 21h-41v-198h41q30 0 45 8t21.5 29t6.5 64z" />
    <glyph glyph-name="Q" unicode="Q" horiz-adv-x="556" 
d="M411 20l71 -115l-149 -15q-16 33 -54 97q-76 0 -129.5 29.5t-81 81t-27.5 116.5v371q0 103 62 165t175 62t175 -62t62 -165v-371q0 -62 -25.5 -111.5t-78.5 -82.5zM278 129q53 0 53 71v400q0 37 -12.5 53.5t-41.5 16.5q-25 0 -38.5 -16t-13.5 -54v-400q0 -71 53 -71z" />
    <glyph glyph-name="R" unicode="R" horiz-adv-x="556" 
d="M517 605q0 -62 -11.5 -97t-35 -54t-64.5 -33v-2q50 -10 78.5 -44t28.5 -80v-192q0 -81 19 -103h-182q-11 13 -16 47t-5 95v140q0 34 -17 48.5t-57 14.5h-30v-345h-184v799h248q122 0 175 -44t53 -150zM330 522q3 13 3 53q0 37 -4.5 54.5t-21.5 25.5t-54 8h-28v-182h47
q49 0 58 41z" />
    <glyph glyph-name="S" unicode="S" horiz-adv-x="556" 
d="M337 582q0 47 -14.5 67.5t-43.5 20.5t-46 -16t-17 -44q0 -38 66 -92q36 -30 84 -67t52 -40q55 -43 79.5 -94t24.5 -125q0 -31 -11.5 -64t-32.5 -58q-32 -39 -84.5 -61t-121.5 -22q-78 0 -131.5 27t-80 72.5t-26.5 101.5v83h178v-61q0 -41 15 -61t47 -20q30 0 47 17.5
t17 44.5q0 35 -24 66.5t-78 71.5q-51 37 -79.5 60t-53.5 48q-59 60 -59 151q0 224 235 224q119 0 174.5 -54t55.5 -144v-75h-172v43z" />
    <glyph glyph-name="T" unicode="T" horiz-adv-x="444" 
d="M314 645v-645h-184v645h-119v154h422v-154h-119z" />
    <glyph glyph-name="U" unicode="U" horiz-adv-x="556" 
d="M278 135q29 0 41 15.5t12 57.5v591h184v-585q0 -66 -28 -117.5t-82 -80.5t-127 -29q-74 0 -127.5 29t-81.5 80.5t-28 117.5v585h184v-591q0 -42 11 -57.5t42 -15.5z" />
    <glyph glyph-name="V" unicode="V" 
d="M247 232l61 567h185l-136 -799h-228l-122 799h188l50 -568z" />
    <glyph glyph-name="W" unicode="W" horiz-adv-x="833" 
d="M271 231l59 568h179l56 -568h2l66 568h185l-140 -799h-205l-54 491l-2 1l-61 -492h-205l-136 799h189l65 -568h2z" />
    <glyph glyph-name="X" unicode="X" horiz-adv-x="556" 
d="M282 572l64 227h191l-147 -374l156 -425h-193l-78 258h-2l-72 -258h-191l155 431l-146 368h198l63 -227h2z" />
    <glyph glyph-name="Y" unicode="Y" 
d="M251 529l54 270h187l-150 -470v-329h-184v316l-150 483h190l51 -270h2z" />
    <glyph glyph-name="Z" unicode="Z" 
d="M221 154h261v-154h-464v149l259 496h-248v154h453v-149z" />
    <glyph glyph-name="bracketleft" unicode="[" horiz-adv-x="333" 
d="M232 699v-709h70v-100h-224v909h224v-100h-70z" />
    <glyph glyph-name="backslash" unicode="\" horiz-adv-x="278" 
d="M177 -13l-218 825h142l218 -825h-142z" />
    <glyph glyph-name="bracketright" unicode="]" horiz-adv-x="333" 
d="M31 -110v100h70v709h-70v100h224v-909h-224z" />
    <glyph glyph-name="asciicircum" unicode="^" horiz-adv-x="600" 
d="M393 421l-93 238l-94 -238h-159l162 365h182l162 -365h-160z" />
    <glyph glyph-name="underscore" unicode="_" 
d="M0 -125v50h500v-50h-500z" />
    <glyph glyph-name="grave" unicode="`" horiz-adv-x="278" 
d="M112 696l-109 136h158l44 -136h-93z" />
    <glyph glyph-name="a" unicode="a" 
d="M303 49h-2q-20 -29 -53 -45.5t-69 -16.5q-44 0 -75 15.5t-47 53.5q-18 40 -18 125q0 62 25 106t83 73q10 5 62 26q46 19 66 40t20 55q0 28 -8.5 40.5t-31.5 12.5q-44 0 -44 -45v-51h-160v46q0 28 3 41.5t10 30.5q17 39 67 67.5t123 28.5q109 0 158 -45.5t49 -149.5v-457
h-158v49zM277 308q-30 -22 -35 -26q-11 -9 -18 -22t-7 -27v-90q0 -50 38 -50q19 0 29.5 16t10.5 38v174z" />
    <glyph glyph-name="b" unicode="b" 
d="M213 581q21 38 49 54.5t74 16.5q62 0 93.5 -42t31.5 -116v-320q0 -86 -33.5 -136.5t-94.5 -50.5q-42 0 -73 20t-47 57h-2v-64h-172v799h172v-218h2zM255 117q15 0 24.5 9.5t9.5 30.5v328q0 17 -10 27t-25 10q-21 0 -32 -21.5t-11 -56.5v-231q0 -52 10.5 -74t33.5 -22z
" />
    <glyph glyph-name="c" unicode="c" 
d="M289 486q0 27 -9.5 37.5t-29.5 10.5t-29.5 -10.5t-9.5 -37.5v-333q0 -27 9.5 -37.5t29.5 -10.5t29.5 10.5t9.5 37.5v119h172v-103q0 -81 -53.5 -131.5t-157.5 -50.5q-105 0 -158 51t-53 130v304q0 80 53.5 130t157.5 50t157.5 -50t53.5 -131v-69h-172v84z" />
    <glyph glyph-name="d" unicode="d" 
d="M289 0v64h-2q-16 -37 -47 -57t-73 -20q-61 0 -94.5 50.5t-33.5 136.5v320q0 74 31.5 116t93.5 42q46 0 74 -16.5t49 -54.5h2v218h172v-799h-172zM245 117q22 0 33 21t11 73v233q0 78 -44 78q-13 0 -23.5 -10t-10.5 -27v-328q0 -21 9.5 -30.5t24.5 -9.5z" />
    <glyph glyph-name="e" unicode="e" 
d="M211 153q0 -27 9.5 -37.5t29.5 -10.5t29.5 10.5t9.5 37.5v84h172v-69q0 -81 -54 -131t-157 -50q-104 0 -157.5 50.5t-53.5 129.5v304q0 80 54 130.5t157 50.5t157 -50t54 -131v-177h-250v-141zM289 486q0 27 -9.5 37.5t-30.5 10.5q-18 0 -28 -10t-10 -37v-75h78v74z" />
    <glyph glyph-name="f" unicode="f" horiz-adv-x="278" 
d="M253 687q-21 0 -28 -7.5t-7 -28.5v-19h49v-124h-43v-508h-172v508h-41v124h41v26q0 36 1.5 49.5t6.5 28.5q11 30 39.5 46.5t89.5 16.5h78v-112h-14zM4 639z" />
    <glyph glyph-name="g" unicode="g" 
d="M461 639v-567q0 -100 -48 -144t-161 -44q-95 0 -146 34.5t-58 101.5h166q1 -23 9 -32t29 -9q19 0 28.5 12t9.5 32v113l-2 2q-14 -38 -44.5 -57t-73.5 -19q-57 0 -94 41.5t-37 107.5v245q0 101 34 148.5t103 47.5q44 0 70 -21t46 -63h2v71h167zM246 186q43 0 43 87v174
q0 37 -13 56t-30 19q-14 0 -24.5 -10t-10.5 -34v-247q0 -22 9.5 -33.5t25.5 -11.5z" />
    <glyph glyph-name="h" unicode="h" 
d="M213 580q23 37 52 54.5t73 17.5q57 0 90 -37t33 -97v-518h-172v441q0 57 -39 57t-39 -58v-440h-172v799h172v-219h2z" />
    <glyph glyph-name="i" unicode="i" horiz-adv-x="278" 
d="M53 681v118h172v-118h-172zM53 0v639h172v-639h-172z" />
    <glyph glyph-name="j" unicode="j" horiz-adv-x="278" 
d="M53 681v118h172v-118h-172zM90 -110h-86v120q5 -2 16 -2q33 0 33 36v595h172v-580q0 -93 -33.5 -131t-101.5 -38z" />
    <glyph glyph-name="k" unicode="k" 
d="M39 0v799h172v-799h-172zM489 0h-176l-97 351l94 288h176l-100 -280z" />
    <glyph glyph-name="l" unicode="l" horiz-adv-x="278" 
d="M53 0v799h172v-799h-172z" />
    <glyph glyph-name="m" unicode="m" horiz-adv-x="778" 
d="M605 652q60 0 93 -38.5t33 -95.5v-518h-172v433q0 35 -10.5 50t-31.5 15q-42 0 -42 -66v-432h-172v433q0 35 -10.5 50t-31.5 15q-42 0 -42 -66v-432h-172v639h166v-79h2q26 50 56.5 71t77.5 21q45 0 76.5 -22t42.5 -70q29 53 57 72.5t80 19.5z" />
    <glyph glyph-name="n" unicode="n" 
d="M289 441q0 30 -10 43.5t-29 13.5q-39 0 -39 -58v-440h-172v639h166v-71h2q24 43 54 63.5t77 20.5q57 0 90 -37.5t33 -97.5v-517h-172v441z" />
    <glyph glyph-name="o" unicode="o" 
d="M250 -13q-105 0 -158 51t-53 130v304q0 80 53.5 130t157.5 50q103 0 157 -50t54 -131v-302q0 -81 -53.5 -131.5t-157.5 -50.5zM250 105q20 0 29.5 10.5t9.5 37.5v333q0 27 -9.5 37.5t-30.5 10.5q-18 0 -28 -10.5t-10 -37.5v-333q0 -27 9.5 -37.5t29.5 -10.5z" />
    <glyph glyph-name="p" unicode="p" 
d="M333 -13q-42 0 -73 20t-47 57h-2v-174h-172v749h172v-58h2q21 38 49 54.5t74 16.5q62 0 93.5 -42t31.5 -116v-321q0 -86 -33.5 -136t-94.5 -50zM255 117q15 0 24.5 9.5t9.5 30.5v328q0 17 -10 27t-25 10q-21 0 -32 -21.5t-11 -56.5v-231q0 -53 10 -74.5t34 -21.5z" />
    <glyph glyph-name="q" unicode="q" 
d="M461 639v-749h-172v174h-2q-16 -37 -47 -57t-73 -20q-61 0 -94.5 50t-33.5 136v321q0 74 31.5 116t93.5 42q46 0 74 -16.5t49 -54.5h2v58h172zM245 117q22 0 33 21.5t11 74.5v231q0 78 -44 78q-13 0 -23.5 -10t-10.5 -27v-328q0 -21 9.5 -30.5t24.5 -9.5z" />
    <glyph glyph-name="r" unicode="r" horiz-adv-x="333" 
d="M211 366v-366h-172v639h163v-113h2q19 52 37 78.5t37.5 36.5t48.5 11v-208h-33q-41 0 -62 -18t-21 -60z" />
    <glyph glyph-name="s" unicode="s" horiz-adv-x="444" 
d="M221 534q-37 0 -37 -43q0 -23 13.5 -39t50.5 -45l34 -26q47 -35 74.5 -60.5t45.5 -61.5t18 -84q0 -92 -51 -140t-148 -48q-103 0 -150 42t-47 133v39h154v-28q0 -31 8 -49.5t35 -18.5q39 0 39 47q0 26 -19 48.5t-62 52.5q-83 59 -116 105t-33 110q0 85 50.5 134.5
t140.5 49.5q89 0 140.5 -39t51.5 -133v-30h-154v30q0 25 -7.5 39.5t-30.5 14.5z" />
    <glyph glyph-name="t" unicode="t" horiz-adv-x="278" 
d="M267 632v-124h-43v-345q0 -26 5.5 -36t21.5 -10h18v-130h-88q-69 0 -99 27.5t-30 83.5v410h-43v124h43v139h172v-139h43zM4 638z" />
    <glyph glyph-name="u" unicode="u" 
d="M250 141q39 0 39 58v440h172v-639h-166v71h-2q-25 -43 -54 -63.5t-77 -20.5q-57 0 -90 37t-33 97v518h172v-441q0 -30 9.5 -43.5t29.5 -13.5z" />
    <glyph glyph-name="v" unicode="v" horiz-adv-x="444" 
d="M224 230l43 409h172l-117 -639h-201l-116 639h177l40 -409h2z" />
    <glyph glyph-name="w" unicode="w" horiz-adv-x="722" 
d="M238 190l46 449h161l39 -449h2l55 449h172l-123 -639h-181l-49 425h-2l-43 -425h-181l-125 639h179l48 -449h2z" />
    <glyph glyph-name="x" unicode="x" 
d="M255 470l45 169h183l-133 -308l138 -331h-188l-48 193h-2l-53 -193h-185l144 331l-136 308h189l44 -169h2z" />
    <glyph glyph-name="y" unicode="y" horiz-adv-x="444" 
d="M226 190l44 449h169l-112 -586q-14 -70 -35.5 -106t-58 -49.5t-99.5 -13.5h-81v124h43q25 0 25 23q0 13 -11 71l-105 537h176l43 -449h2z" />
    <glyph glyph-name="z" unicode="z" horiz-adv-x="444" 
d="M210 136h209v-136h-394v130l202 373h-196v136h388v-130z" />
    <glyph glyph-name="braceleft" unicode="{" horiz-adv-x="333" 
d="M306 699q-32 0 -47 -12.5t-15 -49.5v-196q0 -40 -30 -65.5t-85 -29.5v-2q58 -1 86.5 -28t28.5 -74v-190q0 -35 14 -48.5t44 -13.5h36v-100h-116q-61 0 -96.5 38t-35.5 106v189q0 31 -25 49.5t-70 18.5v106q45 0 70 19t25 50v188q0 68 36.5 106.5t95.5 38.5h116v-100h-32z
" />
    <glyph glyph-name="bar" unicode="|" horiz-adv-x="222" 
d="M40 -250v1000h142v-1000h-142z" />
    <glyph glyph-name="braceright" unicode="}" horiz-adv-x="333" 
d="M244 654v-188q0 -32 24.5 -50.5t69.5 -18.5v-106q-45 0 -69.5 -18.5t-24.5 -50.5v-188q0 -68 -35.5 -106t-96.5 -38h-117v100h43q52 0 52 62v189q0 97 115 103v2q-55 4 -85 29.5t-30 65.5v196q0 35 -14 48.5t-44 13.5h-37v100h117q59 0 95.5 -38.5t36.5 -106.5z" />
    <glyph glyph-name="asciitilde" unicode="~" horiz-adv-x="600" 
d="M406 219q-25 0 -47.5 8t-55.5 26q-34 19 -60 27.5t-53 8.5t-47.5 -18t-37.5 -56l-36 130q44 86 125 86q26 0 59 -11t73 -31q33 -15 50.5 -21.5t31.5 -6.5q21 0 40.5 15.5t46.5 58.5l36 -130q-32 -47 -60.5 -66.5t-64.5 -19.5z" />
    <glyph glyph-name="uni00A0" unicode="&#xa0;" horiz-adv-x="250" 
 />
    <glyph glyph-name="exclamdown" unicode="&#xa1;" horiz-adv-x="334" 
d="M84 505v184h166v-184h-166zM250 -110h-166v312l38 256h90l38 -256v-312zM14 639z" />
    <glyph glyph-name="cent" unicode="&#xa2;" 
d="M461 474v-72h-172v84q0 27 -9.5 37.5t-29.5 10.5t-29.5 -10.5t-9.5 -37.5v-333q0 -27 9.5 -37.5t29.5 -10.5t29.5 10.5t9.5 37.5v119h172v-107q0 -70 -43.5 -116.5t-124.5 -61.5v-78h-88v78q-76 13 -121 61t-45 118v307q0 69 45 117.5t121 61.5v78h88v-78
q79 -13 123.5 -60t44.5 -118z" />
    <glyph glyph-name="sterling" unicode="&#xa3;" 
d="M259 663q-47 0 -47 -56q0 -27 7.5 -59.5t21.5 -83.5q8 -28 12 -46h131v-88h-122q0 -52 -22.5 -100t-61.5 -89q27 0 65 -6q30 -4 41 -4q23 0 35.5 19t12.5 51h148v-39q0 -85 -48.5 -130t-124.5 -45q-32 0 -102 14q-66 12 -90 12q-48 0 -90 -21l7 152q39 9 60.5 47.5
t21.5 100.5q0 26 -4 38h-90v88h66q-27 54 -39.5 95t-12.5 91q0 92 61 143.5t164 51.5t156.5 -52.5t53.5 -156.5v-35h-160v28q0 43 -12 61.5t-38 18.5z" />
    <glyph glyph-name="currency" unicode="&#xa4;" 
d="M250 626q72 0 130 -42l46 46l50 -50l-47 -46q42 -56 42 -128q0 -71 -42 -129l47 -46l-50 -50l-47 46q-54 -42 -129 -42q-69 0 -127 40l-49 -48l-50 50l48 48q-43 59 -43 131q0 69 41 128l-46 46l50 50l46 -46q58 42 130 42zM353 406q0 50 -30 82t-74 32q-43 0 -72.5 -32
t-29.5 -82q0 -51 29 -83t74 -32q43 0 73 32.5t30 82.5z" />
    <glyph glyph-name="yen" unicode="&#xa5;" 
d="M251 516l55 270h174l-102 -345h100v-88h-129l-10 -37v-41h139v-88h-139v-187h-178v187h-137v88h137v28l-10 50h-127v88h100l-104 345h184l45 -270h2z" />
    <glyph glyph-name="brokenbar" unicode="&#xa6;" horiz-adv-x="222" 
d="M40 375v300h142v-300h-142zM40 -175v350h142v-350h-142z" />
    <glyph glyph-name="section" unicode="&#xa7;" 
d="M251 700q-18 0 -30.5 -15t-12.5 -34q0 -27 22 -50t70 -49q78 -43 108 -68q35 -29 50.5 -62.5t15.5 -73.5q0 -43 -17 -82t-49 -68q24 -27 35 -54t11 -62q0 -84 -54.5 -133t-147.5 -49q-98 0 -150.5 50t-52.5 150h154v-13q0 -38 13 -58.5t35 -20.5q23 0 36 15t13 37
q0 28 -22.5 48t-74.5 47q-79 40 -114 74q-63 59 -63 152q0 42 20 80t54 64v2q-5 1 -15 17t-17.5 39.5t-7.5 45.5q0 56 25.5 97.5t69.5 63.5t100 22q100 0 148 -48.5t48 -151.5h-154v28q0 32 -11.5 46t-34.5 14zM150 401q0 -16 17.5 -33t54.5 -38q76 -44 97 -61q9 6 17 18
t8 23q0 21 -13.5 35t-44.5 32q-81 48 -114 76q-2 -3 -8.5 -13.5t-10 -20t-3.5 -18.5z" />
    <glyph glyph-name="dieresis" unicode="&#xa8;" horiz-adv-x="278" 
d="M2 702v130h112v-130h-112zM164 702v130h112v-130h-112z" />
    <glyph glyph-name="copyright" unicode="&#xa9;" horiz-adv-x="880" 
d="M440 -13q-121 0 -218.5 53t-153.5 147t-56 212q0 120 56.5 214t154.5 146.5t217 52.5q121 0 219 -53.5t153.5 -147.5t55.5 -212t-56 -212t-153.5 -147t-218.5 -53zM738 399q0 81 -38.5 148.5t-107 107t-153.5 39.5q-84 0 -152 -38.5t-106.5 -106t-38.5 -150.5
q0 -84 39 -151t107 -105t152 -38t152 39t107 106.5t39 148.5zM454 541q-46 0 -75 -38t-29 -98q0 -35 13.5 -67t38 -52t55.5 -20q38 0 64 19t29 55h104q-13 -82 -66.5 -128t-130.5 -46q-67 0 -119.5 30.5t-82 84.5t-29.5 122q0 70 28.5 124t80 84t119.5 30q80 0 132 -45.5
t64 -123.5h-100q-15 69 -96 69z" />
    <glyph glyph-name="ordfeminine" unicode="&#xaa;" horiz-adv-x="325" 
d="M197 437h-2q-15 -18 -37.5 -27.5t-51.5 -9.5q-49 0 -69 28q-9 14 -13 33.5t-4 52.5q0 52 27 80t87 46q32 10 45.5 22t13.5 29q0 32 -32 32q-15 0 -23 -7.5t-8 -19.5v-27h-106v35q0 42 33.5 68.5t104.5 26.5q79 0 111 -27.5t32 -88.5v-275h-108v29zM193 496v105l-29 -16
q-20 -11 -28 -20q-4 -10 -4 -18v-54q0 -16 4.5 -21.5t21.5 -5.5q16 0 25.5 9.5t9.5 20.5z" />
    <glyph glyph-name="guillemotleft" unicode="&#xab;" 
d="M272 187h-130l-98 145l101 141h130l-104 -141zM453 187h-130l-98 145l100 141h131l-104 -141z" />
    <glyph glyph-name="logicalnot" unicode="&#xac;" horiz-adv-x="600" 
d="M411 192v186h-364v142h506v-328h-142z" />
    <glyph glyph-name="uni00AD" unicode="&#xad;" horiz-adv-x="333" 
d="M35 264v148h263v-148h-263z" />
    <glyph glyph-name="registered" unicode="&#xae;" horiz-adv-x="880" 
d="M440 -13q-121 0 -218.5 53t-153.5 146.5t-56 212.5q0 120 56.5 214t154.5 146.5t217 52.5q120 0 217.5 -52.5t154 -146.5t56.5 -214q0 -118 -56 -212t-153.5 -147t-218.5 -53zM738 399q0 84 -39.5 151t-107.5 105.5t-152 38.5q-83 0 -151 -38t-107 -105t-39 -152
q0 -84 39 -151t107 -105t152 -38q83 0 151 38.5t107.5 105.5t39.5 150zM620 487q0 -110 -107 -117l114 -193h-129l-102 189h-19v-189h-112v444h174q96 0 138.5 -32t42.5 -102zM502 498q0 25 -17 36t-52 11h-56v-103h67q29 0 43.5 12t14.5 44z" />
    <glyph glyph-name="macron" unicode="&#xaf;" horiz-adv-x="278" 
d="M-8 710v76h294v-76h-294z" />
    <glyph glyph-name="degree" unicode="&#xb0;" horiz-adv-x="400" 
d="M200 479q-45 0 -83 21t-60.5 57.5t-22.5 81.5t23 82t61 57.5t82 20.5t82.5 -21t61 -58t22.5 -81t-22.5 -81t-60.5 -58t-83 -21zM284 639q0 38 -24 64t-61 26q-36 0 -59.5 -26.5t-23.5 -63.5t24 -63.5t60 -26.5t60 26.5t24 63.5z" />
    <glyph glyph-name="plusminus" unicode="&#xb1;" horiz-adv-x="600" 
d="M553 488v-142h-182v-102h-142v102h-182v142h182v102h142v-102h182zM47 60v142h506v-142h-506z" />
    <glyph glyph-name="uni00B2" unicode="&#xb2;" horiz-adv-x="325" 
d="M231 525q-42 -34 -67 -62.5t-32 -54.5h175v-88h-295v16q0 69 26 120q14 28 35.5 53t56.5 54q34 29 49.5 54t15.5 56q0 21 -6 32.5t-25 11.5q-21 0 -26.5 -12.5t-5.5 -37.5v-40h-112v36q4 71 38 103.5t113 32.5q67 0 104.5 -31.5t37.5 -93.5q0 -44 -19.5 -78.5
t-62.5 -70.5z" />
    <glyph glyph-name="uni00B3" unicode="&#xb3;" horiz-adv-x="325" 
d="M245 576q36 -12 50 -40t14 -68q0 -81 -35 -118.5t-112 -37.5q-75 0 -110.5 33t-35.5 90v43h112v-47q0 -37 32 -37q31 0 31 38v38q0 28 -8.5 41.5t-22.5 17t-42 4.5v76h17q24 0 38 10t14 27v38q0 18 -5 25.5t-22 7.5q-18 0 -24 -8.5t-6 -30.5v-27h-112v20q0 64 34 96
t110 32q73 0 108 -29.5t35 -89.5q0 -38 -12.5 -64t-47.5 -40z" />
    <glyph glyph-name="acute" unicode="&#xb4;" horiz-adv-x="278" 
d="M73 696l47 136h155l-106 -136h-96z" />
    <glyph glyph-name="mu" unicode="&#xb5;" 
d="M250 141q39 0 39 58v440h172v-639h-166v71h-2q-39 -69 -88 -78v-103h-166v749h172v-442q0 -30 10 -43t29 -13z" />
    <glyph glyph-name="paragraph" unicode="&#xb6;" horiz-adv-x="620" 
d="M425 -87v792h-101v-792h-118v537q-108 0 -165.5 44.5t-57.5 126.5q0 91 58 134.5t182 43.5h320v-886h-118z" />
    <glyph glyph-name="periodcentered" unicode="&#xb7;" horiz-adv-x="250" 
d="M125 236q-38 0 -65 27t-27 65t27 65t65 27q37 0 64.5 -26.5t27.5 -65.5q0 -37 -26.5 -64.5t-65.5 -27.5z" />
    <glyph glyph-name="cedilla" unicode="&#xb8;" horiz-adv-x="278" 
d="M124 -44h2q13 5 39 5q38 0 62 -21t24 -58q0 -38 -29 -59t-83 -21q-32 0 -67.5 9t-66.5 22l19 27q26 -9 45 -13.5t37 -4.5q51 0 51 34q0 39 -43 39q-13 0 -25 -3.5t-15 -4.5l-22 19l57 74h55z" />
    <glyph glyph-name="uni00B9" unicode="&#xb9;" horiz-adv-x="325" 
d="M109 320v353h-82v64q36 1 62.5 16.5t33.5 37.5h110v-471h-124z" />
    <glyph glyph-name="ordmasculine" unicode="&#xba;" horiz-adv-x="325" 
d="M162 400q-68 0 -105 29t-37 79v183q0 50 37 79t105 29q70 0 106.5 -29t36.5 -80v-182q0 -50 -36.5 -79t-106.5 -29zM162 476q31 0 31 33v181q0 33 -31 33q-30 0 -30 -35v-179q0 -33 30 -33z" />
    <glyph glyph-name="guillemotright" unicode="&#xbb;" 
d="M176 187h-130l101 145l-103 141h130l101 -141zM357 187h-130l101 145l-103 141h130l101 -141z" />
    <glyph glyph-name="onequarter" unicode="&#xbc;" horiz-adv-x="750" 
d="M91 -26l417 838h102l-417 -838h-102zM82 320v353h-82v64q36 1 62.5 16.5t33.5 37.5h110v-471h-124zM549 242q-28 -44 -40 -67h78v63q26 26 45 62.5t29 76.5h50v-202h39v-88h-39v-87h-124v87h-150v101q66 133 77 284h124q-5 -68 -26.5 -118.5t-62.5 -111.5z" />
    <glyph glyph-name="onehalf" unicode="&#xbd;" horiz-adv-x="750" 
d="M82 320v353h-82v64q36 1 62.5 16.5t33.5 37.5h110v-471h-124zM78 -26l417 838h102l-417 -838h-102zM668 205q-42 -34 -67 -62.5t-32 -54.5h175v-88h-295v16q0 69 26 120q14 28 35.5 53t56.5 54q34 29 49.5 54t15.5 56q0 21 -6 32.5t-25 11.5q-21 0 -26.5 -12.5
t-5.5 -37.5v-40h-112v36q4 71 38 103.5t113 32.5q67 0 104.5 -31.5t37.5 -93.5q0 -44 -19.5 -78.5t-62.5 -70.5z" />
    <glyph glyph-name="threequarters" unicode="&#xbe;" horiz-adv-x="750" 
d="M123 -26l417 838h102l-417 -838h-102zM229 576q36 -12 50 -40t14 -68q0 -81 -35 -118.5t-112 -37.5q-75 0 -110.5 33t-35.5 90v43h112v-47q0 -37 32 -37q31 0 31 38v38q0 28 -8.5 41.5t-22.5 17t-42 4.5v76h17q24 0 38 10t14 27v38q0 18 -5 25.5t-22 7.5q-18 0 -24 -8.5
t-6 -30.5v-27h-112v20q0 64 34 96t110 32q73 0 108 -29.5t35 -89.5q0 -38 -12.5 -64t-47.5 -40zM551 248q-28 -44 -42 -70h78v63q25 25 44.5 62t29.5 77h50v-202h39v-88h-39v-87h-124v87h-150v101q66 133 77 284h124q-3 -62 -26 -115t-61 -112z" />
    <glyph glyph-name="questiondown" unicode="&#xbf;" 
d="M372 689v-184h-166v184h166zM128 265q57 57 78.5 99.5t22.5 93.5h130v-37q0 -61 -21 -105.5t-80 -110.5q-32 -36 -47 -66t-15 -62q0 -44 14 -63t42 -19q56 0 56 98v50h154v-70q0 -56 -26 -100.5t-75 -70t-116 -25.5q-104 0 -162.5 48t-58.5 145q0 56 24.5 98t79.5 97z
M53 639z" />
    <glyph glyph-name="Agrave" unicode="&#xc0;" horiz-adv-x="556" 
d="M356 0l-17 142h-129l-19 -142h-184l148 799h244l150 -799h-193zM321 284l-43 391h-2l-47 -391h92zM251 847l-109 136h158l44 -136h-93z" />
    <glyph glyph-name="Aacute" unicode="&#xc1;" horiz-adv-x="556" 
d="M356 0l-17 142h-129l-19 -142h-184l148 799h244l150 -799h-193zM321 284l-43 391h-2l-47 -391h92zM211 847l48 136h154l-106 -136h-96z" />
    <glyph glyph-name="Acircumflex" unicode="&#xc2;" horiz-adv-x="556" 
d="M356 0l-17 142h-129l-19 -142h-184l148 799h244l150 -799h-193zM321 284l-43 391h-2l-47 -391h92zM322 847l-44 76l-50 -76h-98l83 136h141l72 -136h-104z" />
    <glyph glyph-name="Atilde" unicode="&#xc3;" horiz-adv-x="556" 
d="M356 0l-17 142h-129l-19 -142h-184l148 799h244l150 -799h-193zM321 284l-43 391h-2l-47 -391h92zM327 858q-14 0 -27 3.5t-34 13.5q-17 8 -29 12t-25 4t-26.5 -11t-22.5 -25l-48 18q38 100 99 100q16 0 33 -5t40 -14q35 -15 52 -15q20 0 33.5 11t20.5 29l48 -21
q-20 -51 -47 -75.5t-67 -24.5z" />
    <glyph glyph-name="Adieresis" unicode="&#xc4;" horiz-adv-x="556" 
d="M356 0l-17 142h-129l-19 -142h-184l148 799h244l150 -799h-193zM321 284l-43 391h-2l-47 -391h92zM141 853v130h112v-130h-112zM303 853v130h112v-130h-112z" />
    <glyph glyph-name="Aring" unicode="&#xc5;" horiz-adv-x="556" 
d="M356 0l-17 142h-129l-19 -142h-184l148 799h244l150 -799h-193zM321 284l-43 391h-2l-47 -391h92zM280 822q-55 0 -86.5 22.5t-31.5 62.5q0 38 33.5 60.5t84.5 22.5t83.5 -22.5t32.5 -60.5q0 -39 -32.5 -62t-83.5 -23zM344 907q0 19 -14.5 28t-50.5 9q-65 0 -65 -37
q0 -20 16 -29.5t50 -9.5q31 0 47.5 10t16.5 29z" />
    <glyph glyph-name="AE" unicode="&#xc6;" horiz-adv-x="778" 
d="M516 645v-159h196v-154h-196v-178h221v-154h-399v154h-130l-36 -154h-186l203 799h541v-154h-214zM338 302v385h-5l-90 -385h95z" />
    <glyph glyph-name="Ccedilla" unicode="&#xc7;" horiz-adv-x="556" 
d="M331 601q0 35 -12.5 52t-40.5 17t-40.5 -17t-12.5 -52v-401q0 -71 53 -71t53 71v119h184v-105q0 -63 -26.5 -113.5t-77 -80.5t-119.5 -32l-29 -32q2 0 12 2.5t29 2.5q39 0 62.5 -20.5t23.5 -58.5t-29 -59t-83 -21q-32 0 -67.5 9t-66.5 22l19 27q50 -18 82 -18q51 0 51 34
q0 39 -43 39q-12 0 -23.5 -3.5t-16.5 -4.5l-22 19l49 64q-95 12 -147 72t-52 152v371q0 104 62.5 165.5t174.5 61.5t174.5 -61.5t62.5 -165.5v-78h-184v94z" />
    <glyph glyph-name="Egrave" unicode="&#xc8;" 
d="M225 645v-159h197v-154h-197v-178h234v-154h-418v799h409v-154h-225zM223 847l-109 136h158l44 -136h-93z" />
    <glyph glyph-name="Eacute" unicode="&#xc9;" 
d="M225 645v-159h197v-154h-197v-178h234v-154h-418v799h409v-154h-225zM183 847l48 136h154l-106 -136h-96z" />
    <glyph glyph-name="Ecircumflex" unicode="&#xca;" 
d="M225 645v-159h197v-154h-197v-178h234v-154h-418v799h409v-154h-225zM294 847l-44 76l-50 -76h-98l83 136h141l72 -136h-104z" />
    <glyph glyph-name="Edieresis" unicode="&#xcb;" 
d="M225 645v-159h197v-154h-197v-178h234v-154h-418v799h409v-154h-225zM113 853v130h112v-130h-112zM275 853v130h112v-130h-112z" />
    <glyph glyph-name="Igrave" unicode="&#xcc;" horiz-adv-x="278" 
d="M47 0v799h184v-799h-184zM112 847l-109 136h158l44 -136h-93z" />
    <glyph glyph-name="Iacute" unicode="&#xcd;" horiz-adv-x="278" 
d="M47 0v799h184v-799h-184zM73 847l48 136h154l-106 -136h-96z" />
    <glyph glyph-name="Icircumflex" unicode="&#xce;" horiz-adv-x="278" 
d="M47 0v799h184v-799h-184zM183 847l-44 76l-50 -76h-98l83 136h141l72 -136h-104z" />
    <glyph glyph-name="Idieresis" unicode="&#xcf;" horiz-adv-x="278" 
d="M47 0v799h184v-799h-184zM2 853v130h112v-130h-112zM164 853v130h112v-130h-112z" />
    <glyph glyph-name="Eth" unicode="&#xd0;" horiz-adv-x="556" 
d="M515 590v-389q0 -62 -26.5 -107.5t-71.5 -69.5t-100 -24h-276v366h-38v124h38v309h277q197 0 197 -209zM281 366h-56v-230h36q30 0 50 16.5t20 40.5v401q0 34 -19 51.5t-62 17.5h-25v-173h56v-124z" />
    <glyph glyph-name="Ntilde" unicode="&#xd1;" horiz-adv-x="611" 
d="M392 328v471h178v-799h-200l-149 494h-2v-494h-178v799h201l148 -471h2zM355 858q-14 0 -27 3.5t-34 13.5q-17 8 -29 12t-25 4t-26.5 -11t-22.5 -25l-48 18q38 100 99 100q16 0 33 -5t40 -14q35 -15 52 -15q20 0 33.5 11t20.5 29l48 -21q-20 -51 -47 -75.5t-67 -24.5z
" />
    <glyph glyph-name="Ograve" unicode="&#xd2;" horiz-adv-x="556" 
d="M278 -13q-74 0 -127.5 29t-81.5 80.5t-28 117.5v371q0 104 63.5 165.5t173.5 61.5q112 0 174.5 -62.5t62.5 -164.5v-371q0 -66 -28.5 -117.5t-82 -80.5t-126.5 -29zM278 129q53 0 53 71v400q0 37 -12.5 53.5t-41.5 16.5q-26 0 -39 -15t-13 -53v-402q0 -71 53 -71z
M251 847l-109 136h158l44 -136h-93z" />
    <glyph glyph-name="Oacute" unicode="&#xd3;" horiz-adv-x="556" 
d="M278 -13q-74 0 -127.5 29t-81.5 80.5t-28 117.5v371q0 104 63.5 165.5t173.5 61.5q112 0 174.5 -62.5t62.5 -164.5v-371q0 -66 -28.5 -117.5t-82 -80.5t-126.5 -29zM278 129q53 0 53 71v400q0 37 -12.5 53.5t-41.5 16.5q-26 0 -39 -15t-13 -53v-402q0 -71 53 -71z
M212 847l48 136h154l-106 -136h-96z" />
    <glyph glyph-name="Ocircumflex" unicode="&#xd4;" horiz-adv-x="556" 
d="M278 -13q-74 0 -127.5 29t-81.5 80.5t-28 117.5v371q0 104 63.5 165.5t173.5 61.5q112 0 174.5 -62.5t62.5 -164.5v-371q0 -66 -28.5 -117.5t-82 -80.5t-126.5 -29zM278 129q53 0 53 71v400q0 37 -12.5 53.5t-41.5 16.5q-26 0 -39 -15t-13 -53v-402q0 -71 53 -71z
M322 847l-44 76l-50 -76h-98l83 136h141l72 -136h-104z" />
    <glyph glyph-name="Otilde" unicode="&#xd5;" horiz-adv-x="556" 
d="M278 -13q-74 0 -127.5 29t-81.5 80.5t-28 117.5v371q0 104 63.5 165.5t173.5 61.5q112 0 174.5 -62.5t62.5 -164.5v-371q0 -66 -28.5 -117.5t-82 -80.5t-126.5 -29zM278 129q53 0 53 71v400q0 37 -12.5 53.5t-41.5 16.5q-26 0 -39 -15t-13 -53v-402q0 -71 53 -71z
M327 858q-14 0 -27 3.5t-34 13.5q-17 8 -29 12t-25 4t-26.5 -11t-22.5 -25l-48 18q38 100 99 100q16 0 33 -5t40 -14q35 -15 52 -15q20 0 33.5 11t20.5 29l48 -21q-20 -51 -47 -75.5t-67 -24.5z" />
    <glyph glyph-name="Odieresis" unicode="&#xd6;" horiz-adv-x="556" 
d="M278 -13q-74 0 -127.5 29t-81.5 80.5t-28 117.5v371q0 104 63.5 165.5t173.5 61.5q112 0 174.5 -62.5t62.5 -164.5v-371q0 -66 -28.5 -117.5t-82 -80.5t-126.5 -29zM278 129q53 0 53 71v400q0 37 -12.5 53.5t-41.5 16.5q-26 0 -39 -15t-13 -53v-402q0 -71 53 -71z
M141 853v130h112v-130h-112zM303 853v130h112v-130h-112z" />
    <glyph glyph-name="multiply" unicode="&#xd7;" horiz-adv-x="600" 
d="M546 469l-144 -144l144 -144l-102 -102l-144 144l-144 -144l-102 102l144 144l-144 144l102 102l144 -144l144 144z" />
    <glyph glyph-name="Oslash" unicode="&#xd8;" horiz-adv-x="556" 
d="M496 686q19 -51 19 -101v-371q0 -66 -28 -117.5t-82 -80.5t-127 -29q-101 0 -165 55l-36 -61l-54 27l50 85q-32 54 -32 121v371q0 103 62 165t175 62q119 0 182 -69l39 66l54 -27zM331 526v76q0 35 -12.5 51.5t-41.5 16.5q-25 0 -38.5 -15.5t-13.5 -52.5v-254h2zM225 201
q0 -40 14 -56t39 -16q53 0 53 71v208h-2l-104 -178v-29z" />
    <glyph glyph-name="Ugrave" unicode="&#xd9;" horiz-adv-x="556" 
d="M278 135q29 0 41 15.5t12 57.5v591h184v-585q0 -66 -28 -117.5t-82 -80.5t-127 -29q-74 0 -127.5 29t-81.5 80.5t-28 117.5v585h184v-591q0 -42 11 -57.5t42 -15.5zM252 847l-109 136h158l44 -136h-93z" />
    <glyph glyph-name="Uacute" unicode="&#xda;" horiz-adv-x="556" 
d="M278 135q29 0 41 15.5t12 57.5v591h184v-585q0 -66 -28 -117.5t-82 -80.5t-127 -29q-74 0 -127.5 29t-81.5 80.5t-28 117.5v585h184v-591q0 -42 11 -57.5t42 -15.5zM211 847l48 136h154l-106 -136h-96z" />
    <glyph glyph-name="Ucircumflex" unicode="&#xdb;" horiz-adv-x="556" 
d="M278 135q29 0 41 15.5t12 57.5v591h184v-585q0 -66 -28 -117.5t-82 -80.5t-127 -29q-74 0 -127.5 29t-81.5 80.5t-28 117.5v585h184v-591q0 -42 11 -57.5t42 -15.5zM322 847l-44 76l-50 -76h-98l83 136h141l72 -136h-104z" />
    <glyph glyph-name="Udieresis" unicode="&#xdc;" horiz-adv-x="556" 
d="M278 135q29 0 41 15.5t12 57.5v591h184v-585q0 -66 -28 -117.5t-82 -80.5t-127 -29q-74 0 -127.5 29t-81.5 80.5t-28 117.5v585h184v-591q0 -42 11 -57.5t42 -15.5zM141 853v130h112v-130h-112zM303 853v130h112v-130h-112z" />
    <glyph glyph-name="Yacute" unicode="&#xdd;" 
d="M251 529l54 270h187l-150 -470v-329h-184v316l-150 483h190l51 -270h2zM183 847l48 136h154l-106 -136h-96z" />
    <glyph glyph-name="Thorn" unicode="&#xde;" horiz-adv-x="556" 
d="M291 669q91 0 140.5 -22t70.5 -74t21 -147q0 -132 -48 -185.5t-143 -53.5h-107v-187h-184v799h184v-130h66zM339 430q0 39 -6.5 59t-22.5 29t-48 9h-37v-198h32q34 0 50.5 6t24 27t7.5 68z" />
    <glyph glyph-name="germandbls" unicode="&#xdf;" 
d="M381 486v-2q42 -9 61 -35t19 -89v-163q0 -97 -39.5 -147t-115.5 -50h-68v142q51 0 51 45v194q0 46 -51 46v124q22 0 35.5 11t13.5 29q0 47 -2 59q-3 13 -12 19t-27 6t-26.5 -9.5t-8.5 -35.5v-630h-172v622q0 88 50.5 132.5t156.5 44.5q102 0 154.5 -43.5t52.5 -126.5
q0 -65 -16.5 -94.5t-55.5 -48.5z" />
    <glyph glyph-name="agrave" unicode="&#xe0;" 
d="M303 49h-2q-20 -29 -53 -45.5t-69 -16.5q-44 0 -75 15.5t-47 53.5q-18 40 -18 125q0 62 25 106t83 73q10 5 62 26q46 19 66 40t20 55q0 28 -8.5 40.5t-31.5 12.5q-44 0 -44 -45v-51h-160v46q0 28 3 41.5t10 30.5q17 39 67 67.5t123 28.5q109 0 158 -45.5t49 -149.5v-457
h-158v49zM277 308q-30 -22 -35 -26q-11 -9 -18 -22t-7 -27v-90q0 -50 38 -50q19 0 29.5 16t10.5 38v174zM223 696l-109 136h158l44 -136h-93z" />
    <glyph glyph-name="aacute" unicode="&#xe1;" 
d="M303 49h-2q-20 -29 -53 -45.5t-69 -16.5q-44 0 -75 15.5t-47 53.5q-18 40 -18 125q0 62 25 106t83 73q10 5 62 26q46 19 66 40t20 55q0 28 -8.5 40.5t-31.5 12.5q-44 0 -44 -45v-51h-160v46q0 28 3 41.5t10 30.5q17 39 67 67.5t123 28.5q109 0 158 -45.5t49 -149.5v-457
h-158v49zM277 308q-30 -22 -35 -26q-11 -9 -18 -22t-7 -27v-90q0 -50 38 -50q19 0 29.5 16t10.5 38v174zM184 696l47 136h155l-106 -136h-96z" />
    <glyph glyph-name="acircumflex" unicode="&#xe2;" 
d="M303 49h-2q-20 -29 -53 -45.5t-69 -16.5q-44 0 -75 15.5t-47 53.5q-18 40 -18 125q0 62 25 106t83 73q10 5 62 26q46 19 66 40t20 55q0 28 -8.5 40.5t-31.5 12.5q-44 0 -44 -45v-51h-160v46q0 28 3 41.5t10 30.5q17 39 67 67.5t123 28.5q109 0 158 -45.5t49 -149.5v-457
h-158v49zM277 308q-30 -22 -35 -26q-11 -9 -18 -22t-7 -27v-90q0 -50 38 -50q19 0 29.5 16t10.5 38v174zM294 696l-44 76l-50 -76h-98l83 136h141l72 -136h-104z" />
    <glyph glyph-name="atilde" unicode="&#xe3;" 
d="M303 49h-2q-20 -29 -53 -45.5t-69 -16.5q-44 0 -75 15.5t-47 53.5q-18 40 -18 125q0 62 25 106t83 73q10 5 62 26q46 19 66 40t20 55q0 28 -8.5 40.5t-31.5 12.5q-44 0 -44 -45v-51h-160v46q0 28 3 41.5t10 30.5q17 39 67 67.5t123 28.5q109 0 158 -45.5t49 -149.5v-457
h-158v49zM277 308q-30 -22 -35 -26q-11 -9 -18 -22t-7 -27v-90q0 -50 38 -50q19 0 29.5 16t10.5 38v174zM298 707q-16 0 -29 4t-32 13q-18 8 -30 12t-24 4q-13 0 -27 -11t-22 -25l-48 18q38 100 99 100q16 0 33 -5t37 -13q37 -16 55 -16q20 0 33.5 11t20.5 29l48 -21
q-20 -51 -47.5 -75.5t-66.5 -24.5z" />
    <glyph glyph-name="adieresis" unicode="&#xe4;" 
d="M303 49h-2q-20 -29 -53 -45.5t-69 -16.5q-44 0 -75 15.5t-47 53.5q-18 40 -18 125q0 62 25 106t83 73q10 5 62 26q46 19 66 40t20 55q0 28 -8.5 40.5t-31.5 12.5q-44 0 -44 -45v-51h-160v46q0 28 3 41.5t10 30.5q17 39 67 67.5t123 28.5q109 0 158 -45.5t49 -149.5v-457
h-158v49zM277 308q-30 -22 -35 -26q-11 -9 -18 -22t-7 -27v-90q0 -50 38 -50q19 0 29.5 16t10.5 38v174zM113 702v130h112v-130h-112zM275 702v130h112v-130h-112z" />
    <glyph glyph-name="aring" unicode="&#xe5;" 
d="M303 49h-2q-20 -29 -53 -45.5t-69 -16.5q-44 0 -75 15.5t-47 53.5q-18 40 -18 125q0 62 25 106t83 73q10 5 62 26q46 19 66 40t20 55q0 28 -8.5 40.5t-31.5 12.5q-44 0 -44 -45v-51h-160v46q0 28 3 41.5t10 30.5q17 39 67 67.5t123 28.5q109 0 158 -45.5t49 -149.5v-457
h-158v49zM277 308q-30 -22 -35 -26q-11 -9 -18 -22t-7 -27v-90q0 -50 38 -50q19 0 29.5 16t10.5 38v174zM251 680q-54 0 -86 22t-32 63q0 39 34 61t84 22q51 0 83.5 -22t32.5 -61t-32.5 -62t-83.5 -23zM315 765q0 20 -15.5 28.5t-49.5 8.5q-65 0 -65 -37q0 -39 66 -39
q31 0 47.5 10t16.5 29z" />
    <glyph glyph-name="ae" unicode="&#xe6;" horiz-adv-x="722" 
d="M511 652q50 0 90.5 -19.5t63.5 -54.5t23 -78v-206h-238v-146q0 -20 10 -31.5t29 -11.5q20 0 29.5 12.5t9.5 35.5v84h160v-102q0 -69 -49.5 -108.5t-138.5 -39.5q-49 0 -78.5 6.5t-53.5 22.5t-55 48q-31 -39 -63.5 -58t-77.5 -19q-38 0 -64.5 10.5t-44.5 34.5
q-16 21 -22.5 56t-6.5 93q0 66 23 107t74 69q23 13 71 31q46 18 64 40t18 53q0 28 -8.5 40.5t-31.5 12.5q-44 0 -44 -45v-51h-160v45q0 29 2.5 41.5t9.5 29.5q16 40 65.5 69t124.5 29q33 0 65.5 -9t56.5 -25q26 17 65.5 25.5t81.5 8.5zM528 486q0 27 -9.5 37.5t-30.5 10.5
q-18 0 -28 -10t-10 -36v-76h78v74zM247 294q-20 -14 -30.5 -27.5t-10.5 -34.5v-89q0 -50 38 -50q19 0 29.5 16t10.5 38v174z" />
    <glyph glyph-name="ccedilla" unicode="&#xe7;" 
d="M289 486q0 27 -9.5 37.5t-29.5 10.5q-18 0 -28.5 -10.5t-10.5 -37.5v-333q0 -27 9.5 -37.5t29.5 -10.5t29.5 10.5t9.5 37.5v119h172v-102q0 -80 -49.5 -128.5t-138.5 -52.5l-38 -42h2q16 5 39 5q39 0 62.5 -21.5t23.5 -57.5q0 -38 -29 -59t-83 -21q-32 0 -67.5 9
t-66.5 22l19 27q26 -9 45 -13.5t37 -4.5q51 0 51 34q0 39 -43 39q-12 0 -23.5 -3.5t-16.5 -4.5l-22 19l56 73q-84 6 -132 53.5t-48 122.5v307q0 80 55 129.5t156 49.5q107 0 159 -51t52 -134v-65h-172v84z" />
    <glyph glyph-name="egrave" unicode="&#xe8;" 
d="M211 153q0 -27 9.5 -37.5t29.5 -10.5t29.5 10.5t9.5 37.5v84h172v-69q0 -81 -54 -131t-157 -50q-104 0 -157.5 50.5t-53.5 129.5v304q0 80 54 130.5t157 50.5t157 -50t54 -131v-177h-250v-141zM289 486q0 27 -9.5 37.5t-30.5 10.5q-18 0 -28 -10t-10 -37v-75h78v74z
M222 696l-109 136h158l44 -136h-93z" />
    <glyph glyph-name="eacute" unicode="&#xe9;" 
d="M211 153q0 -27 9.5 -37.5t29.5 -10.5t29.5 10.5t9.5 37.5v84h172v-69q0 -81 -54 -131t-157 -50q-104 0 -157.5 50.5t-53.5 129.5v304q0 80 54 130.5t157 50.5t157 -50t54 -131v-177h-250v-141zM289 486q0 27 -9.5 37.5t-30.5 10.5q-18 0 -28 -10t-10 -37v-75h78v74z
M183 696l47 136h155l-106 -136h-96z" />
    <glyph glyph-name="ecircumflex" unicode="&#xea;" 
d="M211 153q0 -27 9.5 -37.5t29.5 -10.5t29.5 10.5t9.5 37.5v84h172v-69q0 -81 -54 -131t-157 -50q-104 0 -157.5 50.5t-53.5 129.5v304q0 80 54 130.5t157 50.5t157 -50t54 -131v-177h-250v-141zM289 486q0 27 -9.5 37.5t-30.5 10.5q-18 0 -28 -10t-10 -37v-75h78v74z
M293 696l-44 76l-50 -76h-98l83 136h141l72 -136h-104z" />
    <glyph glyph-name="edieresis" unicode="&#xeb;" 
d="M211 153q0 -27 9.5 -37.5t29.5 -10.5t29.5 10.5t9.5 37.5v84h172v-69q0 -81 -54 -131t-157 -50q-104 0 -157.5 50.5t-53.5 129.5v304q0 80 54 130.5t157 50.5t157 -50t54 -131v-177h-250v-141zM289 486q0 27 -9.5 37.5t-30.5 10.5q-18 0 -28 -10t-10 -37v-75h78v74z
M112 702v130h112v-130h-112zM274 702v130h112v-130h-112z" />
    <glyph glyph-name="igrave" unicode="&#xec;" horiz-adv-x="278" 
d="M53 0v639h172v-639h-172zM112 696l-109 136h158l44 -136h-93z" />
    <glyph glyph-name="iacute" unicode="&#xed;" horiz-adv-x="278" 
d="M53 0v639h172v-639h-172zM73 696l47 136h155l-106 -136h-96z" />
    <glyph glyph-name="icircumflex" unicode="&#xee;" horiz-adv-x="278" 
d="M53 0v639h172v-639h-172zM183 696l-44 76l-50 -76h-98l83 136h141l72 -136h-104z" />
    <glyph glyph-name="idieresis" unicode="&#xef;" horiz-adv-x="278" 
d="M53 0v639h172v-639h-172zM2 702v130h112v-130h-112zM164 702v130h112v-130h-112z" />
    <glyph glyph-name="eth" unicode="&#xf0;" 
d="M237 798q51 -27 65 -35l111 46l48 -65l-97 -41q97 -99 97 -283v-250q0 -83 -53 -133t-158 -50q-104 0 -157.5 50t-53.5 133v250q0 46 27 83t73 58t101 21q16 0 25.5 -1.5t25.5 -6.5q0 13 -13 40t-34 48l-93 -39l-54 56l88 36q-8 8 -33.5 21.5t-49.5 22.5l109 53
q5 -3 12 -6.5t14 -7.5zM250 105q20 0 29.5 10.5t9.5 37.5v263q0 27 -9.5 37.5t-30.5 10.5q-18 0 -28 -10t-10 -36v-266q0 -26 9.5 -36.5t29.5 -10.5zM44 799z" />
    <glyph glyph-name="ntilde" unicode="&#xf1;" 
d="M289 441q0 30 -10 43.5t-29 13.5q-39 0 -39 -58v-440h-172v639h166v-71h2q24 43 54 63.5t77 20.5q57 0 90 -37.5t33 -97.5v-517h-172v441zM298 707q-16 0 -29 4t-32 13q-18 8 -30 12t-24 4q-13 0 -27 -11t-22 -25l-48 18q38 100 99 100q16 0 33 -5t37 -13q37 -16 55 -16
q20 0 33.5 11t20.5 29l48 -21q-20 -51 -47.5 -75.5t-66.5 -24.5z" />
    <glyph glyph-name="ograve" unicode="&#xf2;" 
d="M250 -13q-105 0 -158 51t-53 130v304q0 80 53.5 130t157.5 50q103 0 157 -50t54 -131v-302q0 -81 -53.5 -131.5t-157.5 -50.5zM250 105q20 0 29.5 10.5t9.5 37.5v333q0 27 -9.5 37.5t-30.5 10.5q-18 0 -28 -10.5t-10 -37.5v-333q0 -27 9.5 -37.5t29.5 -10.5zM222 696
l-109 136h158l44 -136h-93z" />
    <glyph glyph-name="oacute" unicode="&#xf3;" 
d="M250 -13q-105 0 -158 51t-53 130v304q0 80 53.5 130t157.5 50q103 0 157 -50t54 -131v-302q0 -81 -53.5 -131.5t-157.5 -50.5zM250 105q20 0 29.5 10.5t9.5 37.5v333q0 27 -9.5 37.5t-30.5 10.5q-18 0 -28 -10.5t-10 -37.5v-333q0 -27 9.5 -37.5t29.5 -10.5zM183 696
l47 136h155l-106 -136h-96z" />
    <glyph glyph-name="ocircumflex" unicode="&#xf4;" 
d="M250 -13q-105 0 -158 51t-53 130v304q0 80 53.5 130t157.5 50q103 0 157 -50t54 -131v-302q0 -81 -53.5 -131.5t-157.5 -50.5zM250 105q20 0 29.5 10.5t9.5 37.5v333q0 27 -9.5 37.5t-30.5 10.5q-18 0 -28 -10.5t-10 -37.5v-333q0 -27 9.5 -37.5t29.5 -10.5zM293 696
l-44 76l-50 -76h-98l83 136h141l72 -136h-104z" />
    <glyph glyph-name="otilde" unicode="&#xf5;" 
d="M250 -13q-105 0 -158 51t-53 130v304q0 80 53.5 130t157.5 50q103 0 157 -50t54 -131v-302q0 -81 -53.5 -131.5t-157.5 -50.5zM250 105q20 0 29.5 10.5t9.5 37.5v333q0 27 -9.5 37.5t-30.5 10.5q-18 0 -28 -10.5t-10 -37.5v-333q0 -27 9.5 -37.5t29.5 -10.5zM298 707
q-16 0 -29 4t-32 13q-18 8 -30 12t-24 4q-13 0 -27 -11t-22 -25l-48 18q38 100 99 100q16 0 33 -5t37 -13q37 -16 55 -16q20 0 33.5 11t20.5 29l48 -21q-20 -51 -47.5 -75.5t-66.5 -24.5z" />
    <glyph glyph-name="odieresis" unicode="&#xf6;" 
d="M250 -13q-105 0 -158 51t-53 130v304q0 80 53.5 130t157.5 50q103 0 157 -50t54 -131v-302q0 -81 -53.5 -131.5t-157.5 -50.5zM250 105q20 0 29.5 10.5t9.5 37.5v333q0 27 -9.5 37.5t-30.5 10.5q-18 0 -28 -10.5t-10 -37.5v-333q0 -27 9.5 -37.5t29.5 -10.5zM112 702v130
h112v-130h-112zM274 702v130h112v-130h-112z" />
    <glyph glyph-name="divide" unicode="&#xf7;" horiz-adv-x="600" 
d="M300 434q-41 0 -69.5 29t-28.5 69q0 42 28.5 70t69.5 28q42 0 70 -28.5t28 -69.5q0 -40 -28.5 -69t-69.5 -29zM47 254v142h506v-142h-506zM300 20q-41 0 -69.5 29t-28.5 69q0 42 28.5 70t69.5 28t69.5 -28t28.5 -70q0 -40 -28.5 -69t-69.5 -29z" />
    <glyph glyph-name="oslash" unicode="&#xf8;" 
d="M442 554q19 -37 19 -81v-307q0 -32 -10.5 -63t-31.5 -54q-55 -62 -169 -62q-98 0 -152 46l-42 -60l-43 34l48 72q-22 38 -22 87v305q0 76 52 128.5t159 52.5q105 0 157 -50l40 58l43 -32zM289 424v67q0 21 -9 32t-31 11q-18 0 -28 -10t-10 -37v-181h2zM250 105
q20 0 29.5 10.5t9.5 37.5v169h-2l-76 -118v-58q0 -41 39 -41z" />
    <glyph glyph-name="ugrave" unicode="&#xf9;" 
d="M250 141q39 0 39 58v440h172v-639h-166v71h-2q-25 -43 -54 -63.5t-77 -20.5q-57 0 -90 37t-33 97v518h172v-441q0 -30 9.5 -43.5t29.5 -13.5zM222 696l-109 136h158l44 -136h-93z" />
    <glyph glyph-name="uacute" unicode="&#xfa;" 
d="M250 141q39 0 39 58v440h172v-639h-166v71h-2q-25 -43 -54 -63.5t-77 -20.5q-57 0 -90 37t-33 97v518h172v-441q0 -30 9.5 -43.5t29.5 -13.5zM183 696l47 136h155l-106 -136h-96z" />
    <glyph glyph-name="ucircumflex" unicode="&#xfb;" 
d="M250 141q39 0 39 58v440h172v-639h-166v71h-2q-25 -43 -54 -63.5t-77 -20.5q-57 0 -90 37t-33 97v518h172v-441q0 -30 9.5 -43.5t29.5 -13.5zM293 696l-44 76l-50 -76h-98l83 136h141l72 -136h-104z" />
    <glyph glyph-name="udieresis" unicode="&#xfc;" 
d="M250 141q39 0 39 58v440h172v-639h-166v71h-2q-25 -43 -54 -63.5t-77 -20.5q-57 0 -90 37t-33 97v518h172v-441q0 -30 9.5 -43.5t29.5 -13.5zM112 702v130h112v-130h-112zM274 702v130h112v-130h-112z" />
    <glyph glyph-name="yacute" unicode="&#xfd;" horiz-adv-x="444" 
d="M226 190l44 449h169l-112 -586q-14 -70 -35.5 -106t-58 -49.5t-99.5 -13.5h-81v124h43q25 0 25 23q0 13 -11 71l-105 537h176l43 -449h2zM157 696l47 136h155l-106 -136h-96z" />
    <glyph glyph-name="thorn" unicode="&#xfe;" 
d="M213 575q16 37 47 57t73 20q128 0 128 -156v-374q0 -56 -32.5 -95.5t-86.5 -39.5q-47 0 -73.5 16t-55.5 55h-2v-168h-172v909h172v-224h2zM255 117q22 0 28 10t6 40v314q0 41 -35 41q-21 0 -32 -21t-11 -71v-235q0 -35 10.5 -56.5t33.5 -21.5z" />
    <glyph glyph-name="ydieresis" unicode="&#xff;" horiz-adv-x="444" 
d="M226 190l44 449h169l-112 -586q-14 -70 -35.5 -106t-58 -49.5t-99.5 -13.5h-81v124h43q25 0 25 23q0 13 -11 71l-105 537h176l43 -449h2zM84 702v130h112v-130h-112zM246 702v130h112v-130h-112z" />
    <glyph glyph-name="dotlessi" unicode="&#x131;" horiz-adv-x="278" 
d="M53 0v639h172v-639h-172z" />
    <glyph glyph-name="OE" unicode="&#x152;" horiz-adv-x="778" 
d="M509 645v-159h196v-154h-196v-178h228v-154h-330q-30 0 -62 -6.5t-67 -6.5q-74 0 -127.5 29t-81.5 80.5t-28 117.5v371q0 104 62.5 165.5t173.5 61.5q23 0 55.5 -6.5t44.5 -6.5h355v-154h-223zM278 129q53 0 53 71v401q0 36 -12.5 52.5t-41.5 16.5q-26 0 -39 -15.5
t-13 -52.5v-402q0 -71 53 -71z" />
    <glyph glyph-name="oe" unicode="&#x153;" horiz-adv-x="722" 
d="M510 652q50 0 90.5 -19t64 -54t23.5 -80v-205h-238v-147q0 -42 44 -42q17 0 25.5 13t8.5 34v85h160v-101q0 -70 -49 -109.5t-138 -39.5q-49 0 -80.5 10t-62.5 34q-22 -22 -52.5 -33t-61.5 -11q-107 0 -158.5 52t-51.5 130v303q0 80 54 130t156 50q71 0 129 -46
q34 26 64.5 36t72.5 10zM245 105q20 0 29.5 10.5t9.5 37.5v333q0 27 -9.5 37.5t-30.5 10.5q-18 0 -28 -10t-10 -37v-334q0 -27 9.5 -37.5t29.5 -10.5zM528 486q0 27 -9.5 37.5t-30.5 10.5q-18 0 -28 -10t-10 -36v-76h78v74z" />
    <glyph glyph-name="Scaron" unicode="&#x160;" horiz-adv-x="556" 
d="M337 582q0 47 -14.5 67.5t-43.5 20.5t-46 -16t-17 -44q0 -38 66 -92q36 -30 84 -67t52 -40q55 -43 79.5 -94t24.5 -125q0 -31 -11.5 -64t-32.5 -58q-32 -39 -84.5 -61t-121.5 -22q-78 0 -131.5 27t-80 72.5t-26.5 101.5v83h178v-61q0 -41 15 -61t47 -20q30 0 47 17.5
t17 44.5q0 35 -24 66.5t-78 71.5q-51 37 -79.5 60t-53.5 48q-59 60 -59 151q0 224 235 224q119 0 174.5 -54t55.5 -144v-75h-172v43zM324 983h97l-78 -136h-142l-66 136h97l44 -73z" />
    <glyph glyph-name="scaron" unicode="&#x161;" horiz-adv-x="444" 
d="M221 534q-37 0 -37 -43q0 -23 13.5 -39t50.5 -45l34 -26q47 -35 74.5 -60.5t45.5 -61.5t18 -84q0 -92 -51 -140t-148 -48q-103 0 -150 42t-47 133v39h154v-28q0 -31 8 -49.5t35 -18.5q39 0 39 47q0 26 -19 48.5t-62 52.5q-83 59 -116 105t-33 110q0 85 50.5 134.5
t140.5 49.5q89 0 140.5 -39t51.5 -133v-30h-154v30q0 25 -7.5 39.5t-30.5 14.5zM268 832h97l-79 -136h-141l-66 136h97l44 -73z" />
    <glyph glyph-name="Ydieresis" unicode="&#x178;" 
d="M251 529l54 270h187l-150 -470v-329h-184v316l-150 483h190l51 -270h2zM113 853v130h112v-130h-112zM275 853v130h112v-130h-112z" />
    <glyph glyph-name="Zcaron" unicode="&#x17d;" 
d="M221 154h261v-154h-464v149l259 496h-248v154h453v-149zM296 983h97l-78 -136h-142l-66 136h97l44 -73z" />
    <glyph glyph-name="zcaron" unicode="&#x17e;" horiz-adv-x="444" 
d="M210 136h209v-136h-394v130l202 373h-196v136h388v-130zM268 832h97l-79 -136h-141l-66 136h97l44 -73z" />
    <glyph glyph-name="florin" unicode="&#x192;" 
d="M438 681q-22 0 -32.5 -7t-17 -25t-16.5 -64q-3 -19 -9 -41h90l-19 -112h-91l-56 -315q-21 -119 -61.5 -176t-115.5 -57q-63 0 -105 6l18 117q24 -5 37 -5q24 0 37.5 29.5t25.5 89.5l58 311h-88l18 112h90q17 116 35 157q22 50 59.5 74t96.5 24q57 0 103 -5l-22 -117
q-16 4 -35 4z" />
    <glyph glyph-name="uni0237" unicode="&#x237;" horiz-adv-x="278" 
d="M86 -110h-82v120q10 -2 16 -2q33 0 33 36v595h172v-581q0 -95 -33.5 -131.5t-105.5 -36.5z" />
    <glyph glyph-name="circumflex" unicode="&#x2c6;" horiz-adv-x="278" 
d="M183 696l-44 76l-50 -76h-98l83 136h141l72 -136h-104z" />
    <glyph glyph-name="caron" unicode="&#x2c7;" horiz-adv-x="278" 
d="M185 832h97l-79 -136h-141l-66 136h97l44 -73z" />
    <glyph glyph-name="ring" unicode="&#x2da;" horiz-adv-x="278" 
d="M140 680q-54 0 -86 22t-32 63q0 39 34 61t84 22q51 0 83.5 -22t32.5 -61t-32.5 -62t-83.5 -23zM204 765q0 20 -15.5 28.5t-49.5 8.5q-65 0 -65 -37q0 -39 66 -39q31 0 47.5 10t16.5 29z" />
    <glyph glyph-name="tilde" unicode="&#x2dc;" horiz-adv-x="278" 
d="M188 707q-16 0 -29 4t-32 13q-18 8 -30 12t-24 4q-13 0 -27 -11t-22 -25l-48 18q38 100 99 100q16 0 33 -5t37 -13q37 -16 55 -16q20 0 33.5 11t20.5 29l48 -21q-20 -51 -47.5 -75.5t-66.5 -24.5z" />
    <glyph glyph-name="endash" unicode="&#x2013;" 
d="M0 270v124h500v-124h-500z" />
    <glyph glyph-name="emdash" unicode="&#x2014;" horiz-adv-x="1000" 
d="M0 270v124h1000v-124h-1000z" />
    <glyph glyph-name="quoteleft" unicode="&#x2018;" horiz-adv-x="278" 
d="M141 689h75v-172h-154v150q0 29 16 60t56 72h81q-5 -5 -24.5 -25t-32.5 -41.5t-17 -43.5z" />
    <glyph glyph-name="quoteright" unicode="&#x2019;" horiz-adv-x="278" 
d="M144 517h-81q33 32 50.5 57t23.5 53h-75v172h154v-149q0 -29 -17 -61t-55 -72z" />
    <glyph glyph-name="quotesinglbase" unicode="&#x201a;" horiz-adv-x="278" 
d="M144 -110h-81q32 32 50 57t24 53h-75v172h154v-149q0 -29 -17 -61t-55 -72z" />
    <glyph glyph-name="quotedblleft" unicode="&#x201c;" 
d="M149 691h75v-174h-154v150q0 29 16 60t56 72h81q-32 -30 -50 -55.5t-24 -52.5zM355 689h75v-172h-154v149q0 29 16 60.5t56 72.5h81q-32 -30 -49.5 -54.5t-24.5 -55.5z" />
    <glyph glyph-name="quotedblright" unicode="&#x201d;" 
d="M152 517h-81q33 33 50 56.5t24 53.5h-75v172h154v-149q0 -29 -17 -61t-55 -72zM358 517h-81q6 6 25.5 26.5t32 41t16.5 42.5h-75v172h154v-149q0 -29 -17 -61t-55 -72z" />
    <glyph glyph-name="quotedblbase" unicode="&#x201e;" 
d="M152 -110h-81q33 33 51 58.5t23 51.5h-75v172h154v-149q0 -29 -17 -61t-55 -72zM358 -110h-81q33 33 50.5 57.5t23.5 52.5h-75v172h154v-149q0 -29 -17 -61t-55 -72z" />
    <glyph glyph-name="dagger" unicode="&#x2020;" 
d="M459 574v-130h-129v-544h-160v544h-129v130h129v225h160v-225h129z" />
    <glyph glyph-name="daggerdbl" unicode="&#x2021;" 
d="M459 588v-130h-129v-220h129v-130h-129v-208h-160v208h-129v130h129v220h-129v130h129v211h160v-211h129z" />
    <glyph glyph-name="bullet" unicode="&#x2022;" 
d="M250 200q-54 0 -100 27t-73 72.5t-27 100.5t27 100.5t73 72.5t100 27t100 -26.5t73 -72.5t27 -101t-27 -100.5t-73 -72.5t-100 -27z" />
    <glyph glyph-name="ellipsis" unicode="&#x2026;" horiz-adv-x="1000" 
d="M84 0v184h166v-184h-166zM417 0v184h166v-184h-166zM750 0v184h166v-184h-166z" />
    <glyph glyph-name="perthousand" unicode="&#x2030;" horiz-adv-x="1000" 
d="M147 -26l282 838h96l-280 -838h-98zM146 395q-66 0 -99 30.5t-33 85.5v173q0 54 32.5 84.5t99.5 30.5q66 0 99 -30.5t33 -85.5v-172q0 -55 -32.5 -85.5t-99.5 -30.5zM146 477q26 0 26 34v172q0 34 -26 34t-26 -34v-175q0 -31 26 -31zM537 -13q-66 0 -99 30.5t-33 85.5
v172q0 55 32.5 85.5t99.5 30.5q66 0 99 -30.5t33 -85.5v-172q0 -55 -32.5 -85.5t-99.5 -30.5zM854 -13q-66 0 -99 30.5t-33 85.5v172q0 55 32.5 85.5t99.5 30.5q66 0 99 -30.5t33 -85.5v-172q0 -55 -32.5 -85.5t-99.5 -30.5zM537 69q26 0 26 34v172q0 34 -26 34t-26 -34
v-172q0 -34 26 -34zM854 69q26 0 26 34v172q0 34 -26 34t-26 -34v-172q0 -34 26 -34z" />
    <glyph glyph-name="guilsinglleft" unicode="&#x2039;" horiz-adv-x="333" 
d="M279 187h-130l-98 145l101 141h130l-104 -141z" />
    <glyph glyph-name="guilsinglright" unicode="&#x203a;" horiz-adv-x="333" 
d="M183 187h-130l101 145l-103 141h130l101 -141z" />
    <glyph glyph-name="fraction" unicode="&#x2044;" horiz-adv-x="167" 
d="M-176 -26l417 838h102l-417 -838h-102z" />
    <glyph glyph-name="Euro" unicode="&#x20ac;" 
d="M322 663q-74 0 -74 -81v-60h174l-30 -88h-144v-78h125l-30 -88h-95v-50q0 -40 14 -67.5t59 -27.5q41 0 82 19.5t77 53.5v-156q-26 -22 -75 -37.5t-104 -15.5q-50 0 -86.5 12t-67.5 37q-77 63 -77 182v50h-80l30 88h50v78h-80l30 88h50v49q0 121 77 182q56 46 153 46
q139 0 190 -74l-50 -138q-15 33 -45.5 54.5t-72.5 21.5z" />
    <glyph glyph-name="trademark" unicode="&#x2122;" horiz-adv-x="1000" 
d="M295 705v-318h-124v318h-111v94h345v-94h-110zM782 799h158v-412h-112v270h-2l-89 -270h-88l-89 270h-2v-270h-112v412h158l89 -239z" />
    <glyph glyph-name="uniE300" unicode="&#xe300;" horiz-adv-x="278" 
d="M112 847l-109 136h158l44 -136h-93z" />
    <glyph glyph-name="uniE301" unicode="&#xe301;" horiz-adv-x="278" 
d="M73 847l48 136h154l-106 -136h-96z" />
    <glyph glyph-name="uniE302" unicode="&#xe302;" horiz-adv-x="278" 
d="M183 847l-44 76l-50 -76h-98l83 136h141l72 -136h-104z" />
    <glyph glyph-name="uniE303" unicode="&#xe303;" horiz-adv-x="278" 
d="M185 983h97l-78 -136h-142l-66 136h97l44 -73z" />
    <glyph glyph-name="uniE304" unicode="&#xe304;" horiz-adv-x="278" 
d="M188 858q-14 0 -27 3.5t-34 13.5q-17 8 -29 12t-25 4t-26.5 -11t-22.5 -25l-48 18q38 100 99 100q16 0 33 -5t40 -14q35 -15 52 -15q20 0 33.5 11t20.5 29l48 -21q-20 -51 -47 -75.5t-67 -24.5z" />
    <glyph glyph-name="uniE305" unicode="&#xe305;" horiz-adv-x="278" 
d="M2 853v130h112v-130h-112zM164 853v130h112v-130h-112z" />
    <glyph glyph-name="uniE308" unicode="&#xe308;" horiz-adv-x="278" 
d="M140 822q-55 0 -86.5 22.5t-31.5 62.5q0 38 33.5 60.5t84.5 22.5t83.5 -22.5t32.5 -60.5q0 -39 -32.5 -62t-83.5 -23zM204 907q0 19 -14.5 28t-50.5 9q-65 0 -65 -37q0 -20 16 -29.5t50 -9.5q31 0 47.5 10t16.5 29z" />
    </font>
</defs>
</svg>
